#N canvas 31 57 1360 709 10;
#X obj 215 72 inlet;
#X obj 128 71 inlet~;
#X obj 215 182 expr sin (($f1 + 100) / 400 * 3.141592654);
#X obj 134 229 expr cos (($f1 + 100) / 400 * 3.141592654);
#X obj 230 339 *~ 0.707107;
#X obj 103 336 *~ 0.707107;
#X obj 448 72 loadbang;
#X obj 449 106 float \$2;
#X obj 221 140 clip -100 100;
#X obj 619 89 inlet;
#X text 139 38 inlets: signal pan-position rvb;
#X obj 332 394 *~ 0;
#X obj 512 402 *~ 0;
#X text 348 340 arguments: throw-symbol default-value pan default-value aux;
#X obj 524 108 float \$3;
#X obj 618 150 gain-scale-157;
#X text 240 53 -100 = left \, 100 = right \, 0 = center \, aux = 0-157;
#X obj 20 436 outlet~;
#X obj 196 435 outlet~;
#X obj 336 438 outlet~;
#X obj 510 437 outlet~;
#X connect 0 0 8 0;
#X connect 1 0 4 0;
#X connect 1 0 5 0;
#X connect 2 0 4 1;
#X connect 3 0 5 1;
#X connect 4 0 12 0;
#X connect 4 0 18 0;
#X connect 5 0 11 0;
#X connect 5 0 17 0;
#X connect 6 0 7 0;
#X connect 6 0 14 0;
#X connect 7 0 8 0;
#X connect 8 0 2 0;
#X connect 8 0 3 0;
#X connect 9 0 15 0;
#X connect 11 0 19 0;
#X connect 12 0 20 0;
#X connect 14 0 15 0;
#X connect 15 0 11 1;
#X connect 15 0 12 1;
