#N canvas 353 391 1338 698 12;
#X obj 231 144 file patchpath;
#X msg 219 246 set \$1;
#X obj 218 195 makefilename %s/%%s.txt;
#X obj 213 301 makefilename;
#X obj 217 367 file isfile;
#X floatatom 216 391 5 0 0 0 - - - 0;
#X obj 135 99 t s s b;
#X msg 259 392 0;
#X obj 181 422 spigot;
#X obj 130 58 inlet;
#X obj 180 477 outlet;
#X obj 295 483 outlet;
#X obj 246 439 sel 0;
#X connect 0 0 2 0;
#X connect 1 0 3 0;
#X connect 2 0 1 0;
#X connect 3 0 4 0;
#X connect 4 0 5 0;
#X connect 4 1 7 0;
#X connect 4 1 11 0;
#X connect 5 0 8 1;
#X connect 5 0 12 0;
#X connect 6 0 8 0;
#X connect 6 1 3 0;
#X connect 6 2 0 0;
#X connect 7 0 8 1;
#X connect 8 0 10 0;
#X connect 9 0 6 0;
#X connect 12 0 11 0;
