#N canvas 473 138 720 704 12;
#X obj 218 479 nbx 15 17 -1e+37 1e+37 0 0 empty empty empty 0 -10 0 12 #fcfcfc #000000 #000000 0 256;
#X obj 220 440 dbtorms;
#X obj 186 278 sel 0;
#X msg 185 342 0;
#X obj 186 248 expr int ($f1 * 100 + 0.05) / 100;
#X obj 188 205 clip 0 157;
#X obj 187 158 nbx 5 17 -1e+37 1e+37 0 0 empty empty empty 0 -10 0 12 #fcfcfc #000000 #000000 0 256;
#X obj 218 392 + 100;
#X obj 257 304 nbx 5 17 -1e+37 1e+37 0 0 empty empty empty 0 -10 0 12 #fcfcfc #000000 #000000 0 256;
#X obj 257 335 expr (pow(($f1 / 157.) \, 0.555427) * 90 - 80);
#X obj 184 90 inlet;
#X obj 217 520 outlet;
#X connect 0 0 11 0;
#X connect 1 0 0 0;
#X connect 2 0 3 0;
#X connect 2 1 9 0;
#X connect 3 0 0 0;
#X connect 4 0 2 0;
#X connect 5 0 4 0;
#X connect 6 0 5 0;
#X connect 7 0 1 0;
#X connect 8 0 9 0;
#X connect 9 0 7 0;
#X connect 10 0 6 0;
