#N canvas 50 602 697 341 12;
#X symbolatom 292 150 10 0 0 0 - - - 0;
#X floatatom 100 189 15 0 0 0 - - - 0;
#X obj 100 100 load-file 1-grain;
#X obj 292 99 loadbang;
#X msg 292 125 symbol \$2;
#X obj 292 172 s \$1-array-grain-tablename;
#X obj 100 210 s \$1-array-grain-file-position-max;
#X connect 0 0 5 0;
#X connect 1 0 6 0;
#X connect 2 0 1 0;
#X connect 3 0 4 0;
#X connect 4 0 0 0;
