#N canvas 766 187 623 581 12;
#X obj 209 469 samplerate~;
#X obj 209 542 array size \$1-buffer;
#X obj 31 356 array define \$1-buffer;
#X obj 311 517 s \$1-buffer-size;
#X obj 206 315 tabwrite~ \$1-buffer;
#X obj 209 493 * 1200;
#X obj 380 229 sel 1 0;
#X msg 326 259 start;
#X msg 425 258 stop;
#X obj 209 420 t b f;
#X obj 417 23 loadbang;
#X msg 417 49 1200;
#X obj 436 313 * 1000;
#X obj 436 367 del;
#X obj 436 337 t b f;
#X msg 436 391 1;
#X msg 397 392 0;
#X obj 484 284 r \$1-buffer-size;
#X obj 436 424 s \$1-buffer-full;
#X obj 208 69 inlet~;
#X obj 71 70 catch~ \$1-record~;
#X obj 380 204 r \$1-rec-toggle;
#X obj 209 395 r \$1-set-buffer-size;
#X obj 417 75 s \$1-set-buffer-size;
#X connect 0 0 5 0;
#X connect 5 0 1 0;
#X connect 5 0 3 0;
#X connect 6 0 7 0;
#X connect 6 0 12 0;
#X connect 6 0 16 0;
#X connect 6 1 8 0;
#X connect 6 1 16 0;
#X connect 7 0 4 0;
#X connect 8 0 4 0;
#X connect 9 0 0 0;
#X connect 9 1 5 1;
#X connect 10 0 11 0;
#X connect 11 0 23 0;
#X connect 12 0 14 0;
#X connect 13 0 15 0;
#X connect 14 0 13 0;
#X connect 14 1 13 1;
#X connect 15 0 18 0;
#X connect 16 0 18 0;
#X connect 17 0 12 0;
#X connect 19 0 4 0;
#X connect 20 0 4 0;
#X connect 21 0 6 0;
#X connect 22 0 9 0;
