#N canvas 75 190 963 647 10;
#X obj 1 19 vsl 17 120 0 157 0 0 \$1-lev \$1-lev \$1-lev 0 -12 0 10 #fcfcfc #000000 #000000 0 1;
#X obj 250 182 pack 0 20;
#X obj 251 203 line~;
#X obj 225 315 *~;
#X obj 250 159 *;
#X obj 251 136 t f f;
#X obj 207 380 outlet~;
#X obj 161 285 inlet~;
#X obj 539 108 outlet;
#X obj 134 403 env~;
#X obj 134 426 - 100;
#X obj 134 447 clip -100 0;
#X obj 24 19 vu 16 120 \$0-meter empty -1 -8 0 10 #404040 #000000 1 0;
#X obj 251 108 gain-scale-157;
#X obj 513 33 r \$1-lev;
#X obj 587 328 settings-memory-module \$1-lev;
#X obj 511 73 t f f;
#X obj 252 355 throw~ \$1;
#X obj 134 468 s \$0-meter;
#X connect 1 0 2 0;
#X connect 2 0 3 1;
#X connect 3 0 6 0;
#X connect 3 0 9 0;
#X connect 3 0 17 0;
#X connect 4 0 1 0;
#X connect 5 0 4 0;
#X connect 5 1 4 1;
#X connect 7 0 3 0;
#X connect 9 0 10 0;
#X connect 10 0 11 0;
#X connect 11 0 18 0;
#X connect 13 0 5 0;
#X connect 14 0 16 0;
#X connect 16 0 13 0;
#X connect 16 1 8 0;
#X coords 0 -1 1 1 70 144 2 0 0;
