#N canvas 540 205 837 656 10;
#X obj 0 177 openpanel;
#X obj 225 135 inlet;
#X text 8 151 get UI to choose+load file;
#X text 232 121 get a message to choose+load file (absolute path);
#X obj 0 206 symbol;
#X msg 597 450 set 0 \, addcomma \, add2 \$1 \, add2 \$1;
#X obj 3 68 hsl 154 15 0 152109 0 0 \$1-file-position \$1-file-position set_position_in_sample -2 -8 0 10 #fcfcfc #000000 #000000 0 1;
#X msg 236 574 range 0 \$1;
#X obj 0 29 bng 25 250 50 0 empty empty play_entire_sample 27 7 0 10 #fcfcfc #000000 #000000;
#X obj 350 479 samplerate~;
#X obj 351 502 / 1000;
#X obj 319 525 /;
#X obj 0 0 bng 25 250 50 0 empty empty load\ soundfile 27 7 0 10 #fcfcfc #000000 #000000;
#X obj 2 227 t s b;
#X obj 59 327 pack s s;
#X obj 62 384 soundfiler;
#X msg 60 356 read -resize -maxsize 1.728e+09 \$1 \$2;
#X obj 224 161 route bang;
#X obj 99 293 symbol \$2;
#X msg 64 462 6.70799e+06;
#X msg 64 423 set \$1;
#X msg 226 302 set \$1;
#X obj 580 523 s \$1-file-position;
#X msg 226 323 /Users/amay/Music/Music/Media.localized/Music/Unknown\ Artist/Unknown\ Album/Flutter_Swoop_and_Wheel.wav;
#X msg 580 481 0 \, 152109 152109;
#X obj 580 502 line 0 5;
#X obj 574 450 bng 16 250 50 0 empty empty empty 0 -8 0 10 #fcfcfc #000000 #000000;
#X text 571 429 old "play entire sample";
#X obj 586 88 symbol \$1;
#X obj 1 97 nbx 15 14 -1e+37 1e+37 0 0 \$1-sample-duration \$1-sample-duration sample\ duration\ ms 0 -8 0 10 #fcfcfc #000000 #000000 0 256;
#X obj 307 574 s \$1-sample-duration;
#X obj 586 53 t b b;
#X obj 648 87 float;
#X obj 665 45 r \$1-sample-duration;
#X obj 587 114 pack s 0;
#X text 289 595 sample duration (ms) - by default also max play position;
#X obj 436 574 s \$1-file-position-max;
#X obj 429 510 s \$1-sample-duration;
#X obj 330 427 t f b b;
#X msg 428 483 0;
#X msg 586 149 \; \$1-level-ctrl 127 \; \$1-file-position-min 0 \; \$1-file-position-max \$2 \; \$1-file-position-ctrl 0 \; \$1-offset-ctrl 50 \; \$1-dur-ctrl 100 \; \$1-rise-ctrl 50 \; \$1-fall-ctrl 50 \; \$1-traverse-speed-ctrl 1 \; \$1-auto-grain-toggle 1 \;;
#X connect 0 0 4 0;
#X connect 1 0 17 0;
#X connect 4 0 13 0;
#X connect 5 0 24 0;
#X connect 7 0 6 0;
#X connect 8 0 31 0;
#X connect 9 0 10 0;
#X connect 10 0 11 1;
#X connect 11 0 7 0;
#X connect 11 0 30 0;
#X connect 11 0 36 0;
#X connect 12 0 0 0;
#X connect 13 0 14 0;
#X connect 13 0 21 0;
#X connect 13 1 18 0;
#X connect 14 0 16 0;
#X connect 15 0 20 0;
#X connect 15 0 38 0;
#X connect 16 0 15 0;
#X connect 17 0 0 0;
#X connect 17 1 4 0;
#X connect 18 0 14 1;
#X connect 20 0 19 0;
#X connect 21 0 23 0;
#X connect 24 0 25 0;
#X connect 25 0 22 0;
#X connect 26 0 24 0;
#X connect 28 0 34 0;
#X connect 31 0 28 0;
#X connect 31 1 32 0;
#X connect 32 0 34 1;
#X connect 33 0 32 1;
#X connect 34 0 40 0;
#X connect 38 0 11 0;
#X connect 38 1 9 0;
#X connect 38 2 39 0;
#X connect 39 0 37 0;
#X coords 0 -1 1 1 159 112 2 0 0;
