#N canvas 240 149 702 573 10;
#X obj 0 13 midi_learn \$1;
#X obj 0 86 midi_learn \$1-skew;
#X obj 1 2 cnv 10 115 10 empty empty \$2 0 5 0 10 #e0e0e0 #404040 0;
#X obj 0 75 cnv 10 115 10 empty empty \$2-skew 0 5 0 10 #e0e0e0 #404040 0;
#X obj -49 -55 bng 15 250 50 0 empty empty empty 17 7 0 10 #fcfcfc #000000 #000000;
#X obj 5 297 gaussian 0 0 3;
#X obj -143 -53 r \$1-\$2-ctrl;
#X obj -48 -77 r \$1-generate-data;
#X obj 5 333 s \$1-\$2;
#X obj 209 -24 r \$1-\$2-max;
#X obj -150 31 r \$1-\$2-skew-ctrl;
#X obj 124 -23 r \$1-\$2-min;
#X obj 149 28 r \$1-\$2-skew-min;
#X obj 259 27 r \$1-\$2-skew-max;
#X obj -103 94 s \$1-\$2-unskewed;
#X floatatom -141 -32 5 0 0 0 - - - 0;
#X obj -47 -33 t b b;
#X floatatom -147 53 5 0 0 0 - - - 0;
#X obj 8 188 r \$1-\$2-unskewed;
#X obj -44 222 float;
#X obj 8 147 nbx 12 18 -1e+37 1e+37 0 0 \$1-\$2 \$1-\$2 MOST_RECENT_OUTPUT 5 25 0 8 #fcfcfc #000000 #000000 0 256;
#X connect 0 0 14 0;
#X connect 1 0 5 1;
#X connect 4 0 16 0;
#X connect 5 0 8 0;
#X connect 6 0 15 0;
#X connect 7 0 4 0;
#X connect 9 0 0 2;
#X connect 10 0 17 0;
#X connect 11 0 0 1;
#X connect 12 0 1 1;
#X connect 13 0 1 1;
#X connect 15 0 0 0;
#X connect 16 0 19 0;
#X connect 16 1 0 0;
#X connect 17 0 1 0;
#X connect 18 0 19 1;
#X connect 19 0 5 0;
#X coords 0 -1 1 1 117 176 2 0 0;
