#N canvas 0 22 454 304 10;
#X obj 70 -44 loadbang;
#X obj 114 50 snapshot~;
#X obj 146 -27 inlet~;
#X obj 242 -44 inlet;
#X obj 100 100 nbx 11 20 -1e+37 1e+37 0 0 empty empty empty 0 -8 0
12 -262144 -1 -1 0 256;
#X obj 113 135 outlet;
#X obj 113 15 metro 10;
#X connect 0 0 6 0;
#X connect 1 0 4 0;
#X connect 2 0 1 0;
#X connect 3 0 6 1;
#X connect 4 0 5 0;
#X connect 6 0 1 0;
#X coords 0 -1 1 1 127 20 2 100 100;
