#N canvas 630 286 942 618 10;
#X obj 255 265 list split 2;
#X obj 255 293 unpack;
#X obj 387 412 outlet;
#X obj 224 360 float;
#X msg 224 411 \$1 0;
#X obj 151 230 inlet;
#X obj 117 311 t b;
#X text 131 211 voice finished;
#X obj 118 154 inlet~;
#X text 117 137 control signal - voice finished?;
#X obj 387 383 list;
#X obj 293 321 == 0;
#X text 321 175 voice-number fake-note note-on-off-toggle [any note info];
#X text 436 410 messages to voice [note info] or bang if none given;
#X obj 118 179 signal_off \$1;
#X obj 294 343 route 0 1;
#X obj 486 384 outlet;
#X text 536 377 external note off messages (may be ignored if patch generates its own note off's);
#X obj 256 197 route \$1;
#X text 259 69 use in voice abstraction for poly_voice shell \; arguments (renumbering arguments from parent patch) \; 1 = voice number \; 2 = \$0 from aux-poly-voices;
#X obj 257 175 r \$2-on;
#X obj 225 440 s \$2-off;
#X connect 0 0 1 0;
#X connect 0 1 10 1;
#X connect 1 0 3 1;
#X connect 1 1 11 0;
#X connect 3 0 4 0;
#X connect 4 0 21 0;
#X connect 5 0 6 0;
#X connect 6 0 3 0;
#X connect 8 0 14 0;
#X connect 10 0 2 0;
#X connect 11 0 15 0;
#X connect 14 0 6 0;
#X connect 15 0 10 0;
#X connect 15 1 16 0;
#X connect 18 0 0 0;
#X connect 20 0 18 0;
