#N canvas 780 264 866 565 12;
#X msg 107 354 start;
#X msg 175 356 stop;
#X obj 101 143 bng 30 250 50 0 \$1-open-recording-file empty open_recording_file 0 -9 0 10 #fc0400 #000000 #000000;
#X obj 256 257 list trim;
#X obj 256 286 list prepend open;
#X obj 256 227 savepanel;
#X obj 254 314 list trim;
#X obj 101 189 tgl 30 0 \$1-record-onoff \$1-record-onoff start/stop_recording 0 -9 0 10 #fcc4c4 #000000 #000000 0 1;
#X obj 108 321 sel 1 0;
#X obj 324 151 t b b;
#X obj 124 546 writesf~ 2;
#X obj 244 426 inlet~;
#X obj 377 426 inlet~;
#X obj 240 398 catch~ \$1-record-l;
#X obj 373 398 catch~ \$1-record-r;
#X obj 412 152 r \$1-record-onoff;
#X obj 357 184 float;
#X obj 357 208 sel 1;
#X msg 357 232 0;
#X obj 357 256 s \$1-record-onoff;
#X obj 109 291 r \$1-record-onoff;
#X obj 101 101 cnv 14 126 14 empty empty \$1\\\ recorder 20 7 0 12 #e0e0e0 #404040 0;
#X obj 324 126 r \$1-open-recording-file;
#X connect 0 0 10 0;
#X connect 1 0 10 0;
#X connect 3 0 4 0;
#X connect 4 0 6 0;
#X connect 5 0 3 0;
#X connect 6 0 10 0;
#X connect 8 0 0 0;
#X connect 8 1 1 0;
#X connect 9 0 5 0;
#X connect 9 1 16 0;
#X connect 11 0 10 0;
#X connect 12 0 10 1;
#X connect 13 0 10 0;
#X connect 14 0 10 1;
#X connect 15 0 16 1;
#X connect 16 0 17 0;
#X connect 17 0 18 0;
#X connect 18 0 19 0;
#X connect 20 0 8 0;
#X connect 22 0 9 0;
#X coords 0 -1 1 1 140 120 2 100 100;
