#N canvas 459 274 490 419 10;
#X obj 100 150 float \$1;
#X obj 165 150 float \$2;
#X obj 234 150 float \$3;
#X obj 299 150 float \$4;
#X obj 147 76 loadbang;
#X obj 111 206 expr $f2 - $f1;
#X obj 236 205 expr $f2 - $f1;
#X obj 56 250 /;
#X obj 43 183 -;
#X obj 43 82 t f b;
#X obj 57 285 *;
#X obj 56 326 +;
#X obj 43 39 inlet;
#X obj 55 357 outlet;
#X obj 124 36 inlet;
#X obj 181 35 inlet;
#X obj 241 38 inlet;
#X obj 296 35 inlet;
#X obj 141 113 t b b b b;
#X connect 0 0 5 0;
#X connect 0 0 8 1;
#X connect 1 0 5 1;
#X connect 2 0 6 0;
#X connect 2 0 11 1;
#X connect 3 0 6 1;
#X connect 4 0 18 0;
#X connect 5 0 7 1;
#X connect 6 0 10 1;
#X connect 7 0 10 0;
#X connect 8 0 7 0;
#X connect 9 0 8 0;
#X connect 9 1 18 0;
#X connect 10 0 11 0;
#X connect 11 0 13 0;
#X connect 12 0 9 0;
#X connect 14 0 0 1;
#X connect 15 0 1 1;
#X connect 16 0 2 1;
#X connect 17 0 3 1;
#X connect 18 0 0 0;
#X connect 18 1 1 0;
#X connect 18 2 2 0;
#X connect 18 3 3 0;
