#N canvas 455 209 746 576 10;
#X obj 101 218 tgl 15 0 empty empty on/off 18 4 0 10 #fcfcfc #000000 #000000 0 1;
#X obj 335 140 loadbang;
#X text 104 656 feeds the "signal view";
#X obj 56 460 tabwrite~ \$0-signal_view;
#X obj 159 218 nbx 5 15 1 64 0 0 empty empty resize 56 4 0 10 #fcfcfc #000000 #000000 0 256;
#X obj 18 265 inlet~;
#X obj 315 409 float \$0;
#X obj 318 384 t b f;
#X obj 314 433 pack;
#X msg 312 458 \; \$1-signal_view resize \$2;
#X obj 333 243 samplerate~;
#X obj 334 181 bng 15 250 50 0 empty empty empty 17 7 0 10 #fcfcfc #000000 #000000;
#X floatatom 333 300 5 0 0 0 - - - 0;
#X obj 334 274 / 512;
#X obj 312 362 * 64;
#X obj 87 337 bang~;
#X obj 97 386 spigot 1;
#X obj 517 61 block~ 4096;
#X obj 461 242 float \$0;
#X msg 462 270 \; \$1-signal_view const \; \$1-signal_view edit 0 \$1-signal-view label symbol empty;
#X obj 101 101 cnv 14 150 14 empty empty SCOPE 100 8 0 12 #000000 #faff00 0;
#X msg 287 170 1;
#N canvas 986 672 560 299 (subpatch) 0;
#X array \$0-signal_view 4096 float 0;
#X coords 0 1 4096 -1 150 100 1 0 0;
#X restore 101 116 graph;
#X connect 0 0 16 1;
#X connect 1 0 11 0;
#X connect 1 0 21 0;
#X connect 4 0 14 0;
#X connect 5 0 3 0;
#X connect 6 0 8 0;
#X connect 7 0 6 0;
#X connect 7 1 8 1;
#X connect 8 0 9 0;
#X connect 10 0 13 0;
#X connect 11 0 10 0;
#X connect 11 0 18 0;
#X connect 13 0 12 0;
#X connect 14 0 7 0;
#X connect 15 0 16 0;
#X connect 16 0 3 0;
#X connect 18 0 19 0;
#X connect 21 0 0 0;
#X coords 0 -1 1 1 152 134 2 100 100;
