#N canvas 555 198 1080 704 10;
#X obj 98 146 list trim;
#X obj 612 346 route list;
#X obj 99 22 r \$1;
#X obj 98 119 list prepend \$1;
#X obj 613 371 route \$1;
#X obj 615 406 s \$1;
#X obj 878 259 loadbang;
#X obj 878 288 t b b;
#X obj 877 346 del 100;
#X obj 760 170 r \$1-write;
#X obj 962 170 r \$1-clear;
#X obj 620 170 r \$1-sort;
#X obj 542 170 r \$1-refresh;
#X obj 465 346 s \$1-message;
#X obj 413 346 outlet;
#X obj 877 367 s \$1-refresh;
#X obj 451 170 r \$1-getnumber;
#X text 306 124 add new message to collection, f 10;
#X text 378 126 retrieve message by name, f 11;
#X obj 370 169 r \$1-getname;
#X text 452 127 retrieve message by number, f 11;
#X text 541 127 resend stored settings, f 8;
#X text 621 128 alphabetize settings, f 11;
#X text 697 129 read settings from file, f 9;
#X text 763 128 write settings to file, f 9;
#X text 965 128 clear all settings, f 9;
#X obj 309 168 r \$1-save;
#X obj 686 170 r \$1-reload;
#X obj 827 170 r \$1-open;
#X obj 894 170 r \$1-close;
#X text 833 127 open text window, f 8;
#X text 900 127 close text window, f 8;
#X obj 904 312 s \$1-reload;
#X obj 699 346 outlet;
#X text 699 363 messages sent;
#X text 371 365 message lookup;
#X obj 465 268 textcoll \$1 1, f 38;
#X text 21 420 argument \; \; 1 - name-stem;
#X obj 98 167 s \$1-save;
#X obj 139 22 inlet;
#X connect 0 0 38 0;
#X connect 1 0 4 0;
#X connect 2 0 3 0;
#X connect 3 0 0 0;
#X connect 4 0 5 0;
#X connect 6 0 7 0;
#X connect 7 0 8 0;
#X connect 7 1 32 0;
#X connect 8 0 15 0;
#X connect 9 0 36 6;
#X connect 10 0 36 9;
#X connect 11 0 36 4;
#X connect 12 0 36 3;
#X connect 16 0 36 2;
#X connect 19 0 36 1;
#X connect 26 0 36 0;
#X connect 27 0 36 5;
#X connect 28 0 36 7;
#X connect 29 0 36 8;
#X connect 36 0 13 0;
#X connect 36 0 14 0;
#X connect 36 1 33 0;
#X connect 36 1 1 0;
#X connect 39 0 3 0;
