#N canvas 448 303 468 300 12;
#X obj 68 157 list trim;
#X obj 68 187 s settings-save;
#X obj 320 119 r settings-recall;
#X obj 321 144 route list;
#X obj 69 33 r \$1;
#X obj 68 130 list prepend \$1;
#X obj 322 169 route \$1;
#X obj 322 194 s \$1;
#X connect 0 0 1 0;
#X connect 2 0 3 0;
#X connect 3 0 6 0;
#X connect 4 0 5 0;
#X connect 5 0 0 0;
#X connect 6 0 7 0;
