#N canvas 71 265 1208 558 10;
#X obj 994 251 loadbang;
#X obj 994 280 t b b;
#X obj 993 338 del 100;
#X obj 876 162 r \$1-write;
#X obj 1078 162 r \$1-clear;
#X obj 736 162 r \$1-sort;
#X obj 658 162 r \$1-refresh;
#X obj 678 337 s \$1-recall;
#X obj 581 338 s \$1-message;
#X obj 529 338 outlet;
#X obj 993 359 s \$1-refresh;
#X obj 567 162 r \$1-getnumber;
#X text 422 116 add new message to collection, f 10;
#X text 494 118 retrieve message by name, f 11;
#X obj 486 161 r \$1-getname;
#X text 568 119 retrieve message by number, f 11;
#X text 657 119 resend stored settings, f 8;
#X text 737 120 alphabetize settings, f 11;
#X text 813 121 read settings from file, f 9;
#X text 879 120 write settings to file, f 9;
#X text 1081 120 clear all settings, f 9;
#X obj 425 160 r \$1-save;
#X obj 2 43 bng 25 250 50 0 \$1-refresh \$1-refresh refresh:\ send\ all\ stored\ messages 0 -8 0 10 #faff00 #000000 #000000;
#X obj 2 88 bng 25 250 50 0 \$1-sort \$1-sort sort:\ alphabetize\ lines\ of\ text 0 -8 0 10 #ff8300 #000000 #000000;
#X obj 1 130 bng 25 250 50 0 \$1-reload \$1-reload reload:\ read\ text\ from\ file 0 -8 0 10 #ff0400 #000000 #000000;
#X obj 802 162 r \$1-reload;
#X obj 1 174 bng 25 250 50 0 \$1-write \$1-write write:\ save\ text\ to\ file 0 -8 0 10 #9c00ff #000000 #000000;
#X obj 1 1 cnv 18 200 18 empty empty \$1 2 8 0 16 #e0e0e0 #404040 0;
#X obj 943 162 r \$1-open;
#X obj 1010 162 r \$1-close;
#X text 949 119 open text window, f 8;
#X text 1016 119 close text window, f 8;
#X obj 194 68 bng 25 250 50 0 \$1-open \$1-open open\ text\ window 0 -8 0 10 #00ff04 #000000 #000000;
#X obj 193 110 bng 25 250 50 0 \$1-close \$1-close close\ text\ window 0 -8 0 10 #00faff #000000 #000000;
#X obj 193 154 bng 25 250 50 0 \$1-clear \$1-clear clear\ text\  0 -8 0 10 #0400ff #000000 #000000;
#X obj 1020 304 s \$1-reload;
#X text 137 412 arguments \; \; 1 - name-stem \; 2 - write file when updated? (toggle);
#X obj 14 554 s \$0-write;
#X obj 24 564 s \$0-write;
#X obj 34 574 s \$0-write;
#X obj 581 260 textcoll \$1 \$2, f 38;
#X obj 815 338 outlet;
#X text 815 355 messages sent;
#X text 487 357 message lookup;
#X connect 0 0 1 0;
#X connect 1 0 2 0;
#X connect 1 1 35 0;
#X connect 2 0 10 0;
#X connect 3 0 40 6;
#X connect 4 0 40 9;
#X connect 5 0 40 4;
#X connect 6 0 40 3;
#X connect 11 0 40 2;
#X connect 14 0 40 1;
#X connect 21 0 40 0;
#X connect 25 0 40 5;
#X connect 28 0 40 7;
#X connect 29 0 40 8;
#X connect 40 0 8 0;
#X connect 40 0 9 0;
#X connect 40 1 7 0;
#X connect 40 1 41 0;
#X coords 0 -1 1 1 300 200 2 0 0;
