#N canvas 244 163 497 496 10;
#X obj 109 26 inlet;
#X obj 109 111 openpanel;
#X obj 107 299 readsf~;
#X obj 109 156 list trim;
#X obj 107 261 list trim;
#X obj 107 327 outlet~;
#X obj 109 81 t b b;
#X obj 108 208 list append 0;
#X msg 184 143 0;
#X obj 107 58 route open;
#X obj 107 234 list prepend open;
#X connect 0 0 9 0;
#X connect 1 0 3 0;
#X connect 2 0 5 0;
#X connect 3 0 7 0;
#X connect 4 0 2 0;
#X connect 6 0 1 0;
#X connect 6 1 8 0;
#X connect 7 0 10 0;
#X connect 8 0 7 1;
#X connect 9 0 6 0;
#X connect 9 1 2 0;
#X connect 10 0 4 0;
