#N canvas 144 90 645 428 10;
#X obj 97 70 inlet;
#X obj 175 67 inlet;
#X obj 239 68 inlet;
#X floatatom 166 188 5 0 0 0 - - -;
#X floatatom 206 188 5 0 0 0 - - -;
#X obj 29 348 spigot;
#X obj 97 152 t f f f;
#X obj 98 348 spigot;
#X obj 98 369 outlet;
#X obj 154 10 loadbang;
#X obj 153 44 float \$1;
#X obj 225 46 float \$2;
#X obj 122 245 >=;
#X obj 164 246 <=;
#X obj 139 290 &&;
#X obj 138 313 == 0;
#X obj 31 369 outlet;
#X obj 226 157 max;
#X obj 181 156 min;
#X obj 183 124 float;
#X obj 215 97 t b f;
#X connect 0 0 6 0;
#X connect 1 0 19 0;
#X connect 2 0 20 0;
#X connect 3 0 12 1;
#X connect 4 0 13 1;
#X connect 5 0 16 0;
#X connect 6 0 5 0;
#X connect 6 0 7 0;
#X connect 6 1 12 0;
#X connect 6 2 13 0;
#X connect 7 0 8 0;
#X connect 9 0 10 0;
#X connect 9 0 11 0;
#X connect 10 0 19 0;
#X connect 11 0 20 0;
#X connect 12 0 14 0;
#X connect 13 0 14 1;
#X connect 14 0 15 0;
#X connect 14 0 5 1;
#X connect 15 0 7 1;
#X connect 17 0 4 0;
#X connect 18 0 3 0;
#X connect 19 0 18 0;
#X connect 19 0 17 0;
#X connect 20 0 19 0;
#X connect 20 1 18 1;
#X connect 20 1 17 1;
