#N canvas 741 246 1069 843 10;
#X obj 1 21 vsl 17 120 0 157 0 0 \$1-lev \$1-lev \$1-lev 0 -12 0 10 #fcfcfc #000000 #000000 0 1;
#X obj 252 238 pack 0 20;
#X obj 253 259 line~;
#X obj 227 371 *~;
#X obj 252 215 *;
#X obj 253 192 t f f;
#X obj 209 436 outlet~;
#X obj 163 341 inlet~;
#X obj 367 375 *~;
#X obj 356 445 outlet~;
#X obj 256 341 inlet~;
#X obj 137 416 env~;
#X obj 296 468 env~;
#X obj 136 482 - 100;
#X obj 295 491 - 100;
#X obj 136 503 clip -100 0;
#X obj 295 512 clip -100 0;
#X obj 136 524 s \$0-meter-l;
#X obj 293 532 s \$0-meter-r;
#X obj 24 19 vu 16 120 \$0-meter-l empty -1 -8 0 10 #404040 #000000 1 0;
#X obj 72 19 vu 16 120 \$0-meter-r empty -1 -8 0 10 #404040 #000000 0 0;
#X obj 393 419 throw~ \$1-r;
#X obj 254 411 throw~ \$1-l;
#X obj 253 164 gain-scale-157;
#X obj 588 24 inlet;
#X obj 0 146 nbx 5 14 0 157 0 0 empty empty empty 0 -8 0 10 #fcfcfc #000000 #000000 0 256;
#X obj 588 46 s \$1-lev;
#X obj 253 136 r \$1-lev;
#X text 632 349 127 = unity gain;
#X text 630 401 argument: name-stem;
#X obj 161 33 r \$1-lev;
#X msg 161 78 set \$1;
#X obj 0 172 s \$1-lev;
#X obj 161 55 expr int($f1 + 0.5);
#X obj 439 115 outlet;
#X obj 625 256 settings-local-module \$1-lev;
#X text 497 513 this is essentially similar to level-control-2ch except that it uses a self-contained setting-save module \, saving a file called \$1.txt (there is now a toggle as argument \$2 in text-coll to write settings whenever they are updated), f 48;
#X connect 1 0 2 0;
#X connect 2 0 3 1;
#X connect 2 0 8 1;
#X connect 3 0 6 0;
#X connect 3 0 11 0;
#X connect 3 0 22 0;
#X connect 4 0 1 0;
#X connect 5 0 4 0;
#X connect 5 1 4 1;
#X connect 7 0 3 0;
#X connect 8 0 9 0;
#X connect 8 0 12 0;
#X connect 8 0 21 0;
#X connect 10 0 8 0;
#X connect 11 0 13 0;
#X connect 12 0 14 0;
#X connect 13 0 15 0;
#X connect 14 0 16 0;
#X connect 15 0 17 0;
#X connect 16 0 18 0;
#X connect 23 0 5 0;
#X connect 24 0 26 0;
#X connect 25 0 32 0;
#X connect 27 0 23 0;
#X connect 30 0 33 0;
#X connect 31 0 25 0;
#X connect 33 0 31 0;
#X connect 33 0 34 0;
#X coords -1 -1 1 1 90 160 2 0 0;
