#N canvas 0 202 1439 886 12;
#X obj 58 212 list split 1;
#X obj 33 441 list store;
#X obj 56 352 sel -1;
#X obj 139 395 t b f f;
#X obj 138 444 list store;
#X obj 124 170 t l l;
#X msg 149 503 1e+09;
#X obj 124 59 inlet;
#X obj 123 105 route list;
#X obj 125 136 list prepend;
#X msg 740 210 sort;
#X obj 739 59 inlet;
#X obj 740 139 bng 19 250 50 0 empty empty empty 0 -10 0 12 #fcfcfc #000000 #000000;
#X text 748 79 alphabetize;
#X text 129 79 add/replace;
#X obj 1123 59 inlet;
#X obj 1124 139 bng 19 250 50 0 empty empty empty 0 -10 0 12 #fcfcfc #000000 #000000;
#X obj 631 59 inlet;
#X obj 628 139 bng 19 250 50 0 empty empty empty 0 -10 0 12 #fcfcfc #000000 #000000;
#X obj 258 59 inlet;
#X obj 257 133 symbol;
#X text 264 79 output message by name;
#X text 634 79 dump messages;
#X obj 435 59 inlet;
#X obj 434 128 float;
#X obj 434 152 - 1;
#X text 440 79 output message by line # (counting from 1), f 24;
#X obj 868 59 inlet;
#X obj 869 139 bng 19 250 50 0 empty empty empty 0 -10 0 12 #fcfcfc #000000 #000000;
#X text 877 79 read file;
#X obj 980 59 inlet;
#X obj 981 139 bng 19 250 50 0 empty empty empty 0 -10 0 12 #fcfcfc #000000 #000000;
#X text 989 79 write file;
#X obj 623 323 until;
#X floatatom 625 255 5 0 0 0 - - - 0;
#X obj 627 197 t b b;
#X obj 620 390 float;
#X msg 671 364 0;
#X obj 648 421 + 1;
#X obj 440 444 outlet;
#X obj 615 497 outlet;
#X text 439 471 individual message;
#X text 612 525 dump of all messages;
#X obj 869 167 t b b;
#X obj 1181 59 inlet;
#X obj 1182 139 bng 19 250 50 0 empty empty empty 0 -10 0 12 #fcfcfc #000000 #000000;
#X obj 1243 59 inlet;
#X obj 1244 139 bng 19 250 50 0 empty empty empty 0 -10 0 12 #fcfcfc #000000 #000000;
#X text 1252 79 clear;
#X msg 1124 219 click;
#X msg 1184 218 close;
#X msg 1246 217 clear;
#X text 1132 79 open;
#X text 1190 79 close;
#X obj 624 285 max 1;
#X obj 435 175 max 0;
#X obj 106 473 t b l;
#X obj 40 474 t b l b;
#X obj 1021 108 r \$0-write;
#X obj 881 109 loadbang;
#X obj 980 169 symbol \$1;
#X msg 981 217 write ./\$1.txt;
#X obj 869 194 symbol \$1;
#X msg 791 253 read ./\$1.txt;
#X obj 36 605 spigot;
#X obj 291 559 loadbang;
#X obj 291 583 float \$2;
#X obj 36 668 s \$0-write;
#X text 1092 427 arguments \; 1 - name of text \; 2 - write to disk when updated? (toggle);
#X obj 232 445 text delete \$1-coll;
#X obj 124 560 text insert \$1-coll;
#X obj 440 403 text get \$1-coll;
#X obj 616 455 text get \$1-coll;
#X obj 626 230 text size \$1-coll;
#X obj 58 282 text search \$1-coll;
#X obj 255 172 text search \$1-coll;
#X obj 771 314 text define \$1-coll;
#X obj 791 224 file-found-test;
#X connect 0 0 74 0;
#X connect 1 0 57 0;
#X connect 2 0 1 0;
#X connect 2 1 3 0;
#X connect 3 0 4 0;
#X connect 3 1 70 1;
#X connect 3 2 69 0;
#X connect 4 0 56 0;
#X connect 5 0 0 0;
#X connect 5 1 4 1;
#X connect 5 1 1 1;
#X connect 6 0 70 1;
#X connect 7 0 8 0;
#X connect 8 0 9 0;
#X connect 8 1 9 0;
#X connect 9 0 5 0;
#X connect 10 0 76 0;
#X connect 11 0 12 0;
#X connect 12 0 10 0;
#X connect 15 0 16 0;
#X connect 16 0 49 0;
#X connect 17 0 18 0;
#X connect 18 0 35 0;
#X connect 19 0 20 0;
#X connect 20 0 75 0;
#X connect 23 0 24 0;
#X connect 24 0 25 0;
#X connect 25 0 55 0;
#X connect 27 0 28 0;
#X connect 28 0 43 0;
#X connect 30 0 31 0;
#X connect 31 0 60 0;
#X connect 33 0 36 0;
#X connect 34 0 54 0;
#X connect 35 0 73 0;
#X connect 35 1 37 0;
#X connect 36 0 38 0;
#X connect 36 0 72 0;
#X connect 37 0 36 1;
#X connect 38 0 36 1;
#X connect 43 0 62 0;
#X connect 43 1 51 0;
#X connect 44 0 45 0;
#X connect 45 0 50 0;
#X connect 46 0 47 0;
#X connect 47 0 51 0;
#X connect 49 0 76 0;
#X connect 50 0 76 0;
#X connect 51 0 76 0;
#X connect 54 0 33 0;
#X connect 55 0 71 0;
#X connect 56 0 64 0;
#X connect 56 1 70 0;
#X connect 57 0 64 0;
#X connect 57 1 70 0;
#X connect 57 2 6 0;
#X connect 58 0 31 0;
#X connect 59 0 28 0;
#X connect 60 0 61 0;
#X connect 61 0 76 0;
#X connect 62 0 77 0;
#X connect 63 0 76 0;
#X connect 64 0 67 0;
#X connect 65 0 66 0;
#X connect 66 0 64 1;
#X connect 71 0 39 0;
#X connect 72 0 40 0;
#X connect 73 0 34 0;
#X connect 74 0 2 0;
#X connect 75 0 71 0;
#X connect 77 0 63 0;
#X coords 0 886 1 885 85 60 0;
