#N canvas 617 200 462 387 10;
#X obj 104 7 inlet;
#X obj 207 61 inlet;
#X obj 98 130 until;
#X obj 75 92 float \$1;
#X obj 85 55 t b b;
#X obj 179 182 float;
#X msg 172 125 0;
#X obj 180 208 + 1;
#X obj 25 313 outlet;
#X obj 214 318 outlet;
#X obj 101 152 t b b b;
#X obj 100 285 spigot;
#X obj 101 314 outlet;
#X obj 90 29 route bang pause break continue resume;
#X obj 259 266 float;
#X obj 176 235 t f f f;
#X obj 259 290 expr $f2 - $f1;
#X obj 177 262 >= \$1;
#X obj 161 289 sel 1;
#X obj 145 56 t b;
#X obj 257 58 t b;
#X connect 0 0 13 0;
#X connect 1 0 3 1;
#X connect 1 0 17 1;
#X connect 2 0 10 0;
#X connect 3 0 2 0;
#X connect 3 0 16 1;
#X connect 4 0 3 0;
#X connect 4 1 6 0;
#X connect 5 0 7 0;
#X connect 6 0 5 1;
#X connect 7 0 5 1;
#X connect 7 0 15 0;
#X connect 10 0 11 0;
#X connect 10 1 8 0;
#X connect 10 2 5 0;
#X connect 11 0 12 0;
#X connect 13 0 4 0;
#X connect 13 1 19 0;
#X connect 13 2 19 0;
#X connect 13 3 20 0;
#X connect 13 4 20 0;
#X connect 14 0 16 0;
#X connect 15 0 17 0;
#X connect 15 1 9 0;
#X connect 15 2 14 1;
#X connect 16 0 2 0;
#X connect 17 0 11 1;
#X connect 17 0 18 0;
#X connect 18 0 2 1;
#X connect 19 0 2 1;
#X connect 20 0 14 0;
