#N canvas 121 159 496 363 10;
#X obj 204 97 inlet;
#X msg 284 163 0;
#X obj 201 178 spigot 1;
#X obj 218 288 del \$1;
#X msg 325 162 1;
#X obj 125 275 outlet;
#X obj 201 216 t a b b;
#X connect 0 0 2 0;
#X connect 1 0 2 1;
#X connect 2 0 6 0;
#X connect 3 0 4 0;
#X connect 4 0 2 1;
#X connect 6 0 5 0;
#X connect 6 1 3 0;
#X connect 6 2 1 0;
